<svg width="69" height="56" viewBox="0 0 69 56" fill="none" xmlns="http://www.w3.org/2000/svg">
<path d="M35.2862 52.1453C40.3074 47.7796 53.4992 37.1456 63.9281 36.139L51.1077 6L42.1632 15.2702H33.2187H24.2742L15.3297 6L4 36.139C13.9598 37.189 26.3949 47.7036 31.1971 52.0919C32.3439 53.14 34.1137 53.1647 35.2862 52.1453Z" stroke="#02000A" stroke-width="5.7485"/>
<path d="M44.2241 35.4169C42.6445 35.9608 41.0243 36.1085 39.4716 35.9128C38.5167 35.7924 38.1385 34.6942 38.8169 34.0115C39.9199 32.9013 41.2876 32.0202 42.8672 31.4763C44.4468 30.9324 46.067 30.7847 47.6196 30.9804C48.5746 31.1008 48.9527 32.199 48.2743 32.8818C47.1713 33.9919 45.8037 34.873 44.2241 35.4169Z" fill="#02000A"/>
<path d="M23.8972 35.4169C25.4767 35.9608 27.097 36.1085 28.6496 35.9128C29.6045 35.7924 29.9827 34.6942 29.3043 34.0115C28.2013 32.9013 26.8336 32.0202 25.254 31.4763C23.6744 30.9324 22.0542 30.7847 20.5016 30.9804C19.5466 31.1008 19.1685 32.199 19.8469 32.8818C20.9499 33.9919 22.3176 34.873 23.8972 35.4169Z" fill="#02000A"/>
<path d="M34.889 41.912C34.459 42.4121 33.6847 42.4121 33.2546 41.912L30.9685 39.2537C30.3675 38.5549 30.864 37.4731 31.7857 37.4731H36.358C37.2797 37.4731 37.7762 38.5549 37.1752 39.2537L34.889 41.912Z" fill="#02000A"/>
</svg>
