<svg width="475" height="384" viewBox="0 0 475 384" fill="none" xmlns="http://www.w3.org/2000/svg">
<path d="M245.7 358.094C280.639 327.717 372.432 253.721 445 246.717L355.791 37L293.552 101.505H231.313H169.075L106.836 37L28 246.717C97.3033 254.023 183.831 327.187 217.246 357.723C225.227 365.016 237.541 365.188 245.7 358.094Z" stroke="#F5F5F5" stroke-width="40"/>
<path d="M307.893 241.693C296.901 245.478 285.627 246.505 274.824 245.143C268.179 244.306 265.548 236.664 270.268 231.913C277.943 224.189 287.46 218.057 298.451 214.273C309.443 210.488 320.716 209.46 331.52 210.822C338.165 211.66 340.796 219.302 336.076 224.053C328.401 231.777 318.884 237.908 307.893 241.693Z" fill="#F5F5F5"/>
<path d="M166.451 241.693C177.443 245.478 188.717 246.505 199.52 245.143C206.165 244.306 208.796 236.664 204.076 231.913C196.401 224.189 186.884 218.057 175.893 214.273C164.901 210.488 153.628 209.46 142.824 210.822C136.179 211.66 133.548 219.302 138.268 224.053C145.943 231.777 155.46 237.908 166.451 241.693Z" fill="#F5F5F5"/>
<path d="M242.936 286.888C239.944 290.368 234.556 290.368 231.564 286.888L215.656 268.39C211.474 263.528 214.929 256 221.342 256H253.158C259.571 256 263.026 263.528 258.844 268.39L242.936 286.888Z" fill="#F5F5F5"/>
</svg>
